<svg width="38" height="34" viewBox="0 0 38 34" fill="none" xmlns="http://www.w3.org/2000/svg">
<path d="M0 4C0 1.79086 1.79086 0 4 0H34C36.2091 0 38 1.79086 38 4V30C38 32.2091 36.2091 34 34 34H4C1.79086 34 0 32.2091 0 30V4Z" fill="#EA1E61"/>
<path d="M14.8551 15.804V17.6506H8.40625V15.804H14.8551ZM17.071 24V22.4091L21.9929 17.3097C22.5185 16.7557 22.9517 16.2704 23.2926 15.8537C23.6383 15.4323 23.8963 15.0322 24.0668 14.6534C24.2372 14.2746 24.3224 13.8722 24.3224 13.446C24.3224 12.9631 24.2088 12.5464 23.9815 12.196C23.7543 11.8409 23.4441 11.5687 23.0511 11.3793C22.6581 11.1851 22.2154 11.0881 21.723 11.0881C21.2022 11.0881 20.7476 11.1946 20.3594 11.4077C19.9711 11.6207 19.6728 11.9214 19.4645 12.3097C19.2562 12.6979 19.152 13.1525 19.152 13.6733H17.0568C17.0568 12.7879 17.2604 12.0137 17.6676 11.3509C18.0748 10.688 18.6335 10.1742 19.3438 9.80966C20.054 9.44034 20.8613 9.25568 21.7656 9.25568C22.6795 9.25568 23.4844 9.43797 24.1804 9.80256C24.8812 10.1624 25.428 10.6548 25.821 11.2798C26.214 11.9001 26.4105 12.6009 26.4105 13.3821C26.4105 13.9219 26.3087 14.4498 26.1051 14.9659C25.9063 15.482 25.5582 16.0573 25.0611 16.6918C24.5639 17.3215 23.8726 18.0862 22.9872 18.9858L20.0966 22.0114V22.1179H26.6449V24H17.071Z" fill="white"/>
</svg>
