<svg width="38" height="34" viewBox="0 0 38 34" fill="none" xmlns="http://www.w3.org/2000/svg">
<path d="M0 4C0 1.79086 1.79086 0 4 0H34C36.2091 0 38 1.79086 38 4V30C38 32.2091 36.2091 34 34 34H4C1.79086 34 0 32.2091 0 30V4Z" fill="#009689"/>
<path d="M14.9176 9.45455V24H12.7159V11.6562H12.6307L9.15057 13.929V11.8267L12.7798 9.45455H14.9176ZM23.9162 24.2415C22.794 24.2367 21.8352 23.9408 21.0398 23.3537C20.2443 22.7666 19.6359 21.9119 19.2145 20.7898C18.7931 19.6676 18.5824 18.3158 18.5824 16.7344C18.5824 15.1577 18.7931 13.8106 19.2145 12.6932C19.6406 11.5758 20.2514 10.7235 21.0469 10.1364C21.8471 9.54924 22.8035 9.25568 23.9162 9.25568C25.0289 9.25568 25.983 9.55161 26.7784 10.1435C27.5739 10.7306 28.1823 11.5829 28.6037 12.7003C29.0298 13.813 29.2429 15.1577 29.2429 16.7344C29.2429 18.3205 29.0322 19.6747 28.6108 20.7969C28.1894 21.9143 27.581 22.7689 26.7855 23.3608C25.9901 23.9479 25.0336 24.2415 23.9162 24.2415ZM23.9162 22.3452C24.901 22.3452 25.6705 21.8646 26.2244 20.9034C26.7831 19.9422 27.0625 18.5526 27.0625 16.7344C27.0625 15.527 26.9347 14.5066 26.679 13.6733C26.428 12.8352 26.0658 12.2008 25.5923 11.7699C25.1236 11.3343 24.5649 11.1165 23.9162 11.1165C22.9361 11.1165 22.1667 11.5994 21.608 12.5653C21.0492 13.5312 20.7675 14.9209 20.7628 16.7344C20.7628 17.9465 20.8883 18.9716 21.1392 19.8097C21.3949 20.643 21.7571 21.2751 22.2259 21.706C22.6946 22.1321 23.258 22.3452 23.9162 22.3452Z" fill="white"/>
</svg>
