<svg width="38" height="34" viewBox="0 0 38 34" fill="none" xmlns="http://www.w3.org/2000/svg">
<path d="M0 4C0 1.79086 1.79086 0 4 0H34C36.2091 0 38 1.79086 38 4V30C38 32.2091 36.2091 34 34 34H4C1.79086 34 0 32.2091 0 30V4Z" fill="#009689"/>
<path d="M19.4631 24.1989C18.4877 24.1989 17.6165 24.0308 16.8494 23.6946C16.0871 23.3584 15.4834 22.892 15.0384 22.2955C14.598 21.6941 14.3613 20.9981 14.3281 20.2074H16.5582C16.5866 20.6383 16.7311 21.0123 16.9915 21.3295C17.2566 21.642 17.6023 21.8835 18.0284 22.054C18.4545 22.2244 18.928 22.3097 19.4489 22.3097C20.0218 22.3097 20.5284 22.2102 20.9688 22.0114C21.4138 21.8125 21.7618 21.5355 22.0128 21.1804C22.2637 20.8205 22.3892 20.4062 22.3892 19.9375C22.3892 19.4498 22.2637 19.0213 22.0128 18.652C21.7666 18.2779 21.4044 17.9844 20.9261 17.7713C20.4527 17.5582 19.8797 17.4517 19.2074 17.4517H17.9787V15.6619H19.2074C19.7472 15.6619 20.2206 15.5649 20.6278 15.3707C21.0398 15.1766 21.3617 14.9067 21.5938 14.5611C21.8258 14.2107 21.9418 13.8011 21.9418 13.3324C21.9418 12.8826 21.84 12.492 21.6364 12.1605C21.4375 11.8243 21.1534 11.5616 20.7841 11.3722C20.4195 11.1828 19.9886 11.0881 19.4915 11.0881C19.018 11.0881 18.5753 11.1757 18.1634 11.3509C17.7562 11.5213 17.4247 11.7675 17.169 12.0895C16.9134 12.4067 16.776 12.7879 16.7571 13.233H14.6335C14.6572 12.447 14.8892 11.7557 15.3295 11.1591C15.7746 10.5625 16.3617 10.0961 17.0909 9.75994C17.8201 9.42377 18.6297 9.25568 19.5199 9.25568C20.4527 9.25568 21.2576 9.43797 21.9347 9.80256C22.6165 10.1624 23.142 10.643 23.5114 11.2443C23.8854 11.8456 24.0701 12.5038 24.0653 13.2188C24.0701 14.0331 23.8428 14.7244 23.3835 15.2926C22.929 15.8608 22.3229 16.242 21.5653 16.4361V16.5497C22.5313 16.6965 23.2794 17.08 23.8097 17.7003C24.3447 18.3205 24.6098 19.09 24.6051 20.0085C24.6098 20.8087 24.3873 21.526 23.9375 22.1605C23.4924 22.795 22.884 23.2945 22.1122 23.6591C21.3404 24.0189 20.4574 24.1989 19.4631 24.1989Z" fill="white"/>
</svg>
