<svg width="38" height="34" viewBox="0 0 38 34" fill="none" xmlns="http://www.w3.org/2000/svg">
<path d="M0 4C0 1.79086 1.79086 0 4 0H34C36.2091 0 38 1.79086 38 4V30C38 32.2091 36.2091 34 34 34H4C1.79086 34 0 32.2091 0 30V4Z" fill="#009689"/>
<path d="M19.2003 25.1989C18.3101 25.1989 17.5099 25.0284 16.7997 24.6875C16.0942 24.3419 15.5308 23.8684 15.1094 23.267C14.688 22.6657 14.4631 21.9792 14.4347 21.2074H16.5653C16.6174 21.8324 16.8944 22.3461 17.3963 22.7486C17.8982 23.151 18.4995 23.3523 19.2003 23.3523C19.759 23.3523 20.2538 23.2244 20.6847 22.9688C21.1203 22.7083 21.4612 22.3509 21.7074 21.8963C21.9583 21.4418 22.0838 20.9233 22.0838 20.3409C22.0838 19.7491 21.956 19.2211 21.7003 18.7571C21.4446 18.2931 21.0919 17.9285 20.642 17.6634C20.197 17.3982 19.6856 17.2633 19.108 17.2585C18.6676 17.2585 18.2249 17.3343 17.7798 17.4858C17.3348 17.6373 16.9749 17.8362 16.7003 18.0824L14.6903 17.7841L15.5071 10.4545H23.5043V12.3366H17.3324L16.8707 16.4062H16.956C17.2401 16.1316 17.6165 15.902 18.0852 15.7173C18.5587 15.5327 19.0653 15.4403 19.6051 15.4403C20.4905 15.4403 21.2789 15.651 21.9702 16.0724C22.6662 16.4938 23.2131 17.0691 23.6108 17.7983C24.0133 18.5227 24.2121 19.3561 24.2074 20.2983C24.2121 21.2405 23.9991 22.081 23.5682 22.8196C23.142 23.5582 22.5502 24.1406 21.7926 24.5668C21.0398 24.9882 20.1757 25.1989 19.2003 25.1989Z" fill="white"/>
</svg>
