<svg width="30" height="30" viewBox="0 0 30 30" fill="none" xmlns="http://www.w3.org/2000/svg">
<path d="M0 9C0 4.02944 4.02944 0 9 0H21C25.9706 0 30 4.02944 30 9V21C30 25.9706 25.9706 30 21 30H9C4.02944 30 0 25.9706 0 21V9Z" fill="#009689"/>
<path d="M9.59801 23V8.45455H14.9247C15.9569 8.45455 16.8116 8.625 17.4886 8.96591C18.1657 9.30208 18.6723 9.759 19.0085 10.3366C19.3447 10.9096 19.5128 11.5559 19.5128 12.2756C19.5128 12.8816 19.4015 13.393 19.179 13.8097C18.9564 14.2216 18.6581 14.553 18.2841 14.804C17.9148 15.0502 17.5076 15.2301 17.0625 15.3438V15.4858C17.5455 15.5095 18.0166 15.6657 18.4759 15.9545C18.9399 16.2386 19.3234 16.6435 19.6264 17.169C19.9295 17.6946 20.081 18.3338 20.081 19.0866C20.081 19.83 19.9058 20.4976 19.5554 21.0895C19.2098 21.6766 18.6747 22.143 17.9503 22.4886C17.2259 22.8295 16.3002 23 15.1733 23H9.59801ZM11.7926 21.1179H14.9602C16.0114 21.1179 16.7642 20.9143 17.2188 20.5071C17.6733 20.0999 17.9006 19.5909 17.9006 18.9801C17.9006 18.5208 17.7846 18.0994 17.5526 17.7159C17.3205 17.3324 16.9891 17.027 16.5582 16.7997C16.1321 16.5724 15.6255 16.4588 15.0384 16.4588H11.7926V21.1179ZM11.7926 14.7472H14.733C15.2254 14.7472 15.6681 14.6525 16.0611 14.4631C16.4588 14.2737 16.7737 14.0085 17.0057 13.6676C17.2424 13.322 17.3608 12.9148 17.3608 12.446C17.3608 11.8447 17.1501 11.3404 16.7287 10.9332C16.3073 10.526 15.661 10.3224 14.7898 10.3224H11.7926V14.7472Z" fill="white"/>
</svg>
